<svg xmlns="http://www.w3.org/2000/svg" viewBox="0 0 64 64" fill="none">
  <rect width="64" height="64" rx="14" fill="#0b0b0c"/>
  <path
    d="M21 14h22c2.8 0 5 2.2 5 5v30c0 2.8-2.2 5-5 5H21c-2.8 0-5-2.2-5-5V19c0-2.8 2.2-5 5-5Z"
    stroke="#ff6a1a"
    stroke-width="3.5"
    stroke-linejoin="round"
  />
  <path d="M26 22v20" stroke="#ff6a1a" stroke-width="3.5" stroke-linecap="round" opacity="0.7"/>
  <circle cx="37" cy="32" r="2.6" fill="#ff6a1a"/>

  <circle cx="50" cy="22" r="3.2" fill="#ffffff" opacity="0.9"/>
  <circle cx="52" cy="36" r="3.2" fill="#ffffff" opacity="0.9"/>
  <circle cx="44" cy="46" r="3.2" fill="#ffffff" opacity="0.9"/>
  <path d="M44 26l4-3M44 37l6-2M40 44l4 1" stroke="#ffffff" stroke-width="3.2" stroke-linecap="round" opacity="0.65"/>
</svg>

